<mxfile host="app.diagrams.net" modified="2024-05-01T20:23:25.325Z" agent="Mozilla/5.0 (X11; Linux x86_64; rv:109.0) Gecko/20100101 Firefox/115.0" etag="0518CCizBZMpACIRB_Q1" version="24.3.1" type="github">
  <diagram name="Page-1" id="edf60f1a-56cd-e834-aa8a-f176f3a09ee4">
    <mxGraphModel dx="1687" dy="932" grid="1" gridSize="10" guides="1" tooltips="1" connect="1" arrows="1" fold="1" page="1" pageScale="1" pageWidth="1100" pageHeight="850" background="none" math="0" shadow="0">
      <root>
        <mxCell id="0" />
        <mxCell id="1" parent="0" />
        <mxCell id="5ZXFGwmUAfrGcH8a05qJ-12" style="edgeStyle=orthogonalEdgeStyle;rounded=0;orthogonalLoop=1;jettySize=auto;html=1;entryX=0;entryY=0.5;entryDx=0;entryDy=0;" edge="1" parent="1" source="5ZXFGwmUAfrGcH8a05qJ-8" target="5ZXFGwmUAfrGcH8a05qJ-9">
          <mxGeometry relative="1" as="geometry" />
        </mxCell>
        <mxCell id="5ZXFGwmUAfrGcH8a05qJ-13" value="Dark" style="edgeLabel;html=1;align=center;verticalAlign=middle;resizable=0;points=[];" vertex="1" connectable="0" parent="5ZXFGwmUAfrGcH8a05qJ-12">
          <mxGeometry x="-0.175" y="3" relative="1" as="geometry">
            <mxPoint y="-7" as="offset" />
          </mxGeometry>
        </mxCell>
        <mxCell id="5ZXFGwmUAfrGcH8a05qJ-16" style="edgeStyle=orthogonalEdgeStyle;rounded=0;orthogonalLoop=1;jettySize=auto;html=1;entryX=0.5;entryY=0;entryDx=0;entryDy=0;" edge="1" parent="1" source="5ZXFGwmUAfrGcH8a05qJ-8" target="5ZXFGwmUAfrGcH8a05qJ-14">
          <mxGeometry relative="1" as="geometry" />
        </mxCell>
        <mxCell id="5ZXFGwmUAfrGcH8a05qJ-17" value="Light" style="edgeLabel;html=1;align=center;verticalAlign=middle;resizable=0;points=[];" vertex="1" connectable="0" parent="5ZXFGwmUAfrGcH8a05qJ-16">
          <mxGeometry x="-0.0824" y="-2" relative="1" as="geometry">
            <mxPoint x="-22" y="-9" as="offset" />
          </mxGeometry>
        </mxCell>
        <mxCell id="5ZXFGwmUAfrGcH8a05qJ-8" value="Light condition?" style="strokeWidth=2;html=1;shape=mxgraph.flowchart.decision;whiteSpace=wrap;fontFamily=Times New Roman;fillColor=#dae8fc;strokeColor=#6c8ebf;" vertex="1" parent="1">
          <mxGeometry x="90" y="190" width="100" height="100" as="geometry" />
        </mxCell>
        <mxCell id="5ZXFGwmUAfrGcH8a05qJ-15" style="edgeStyle=orthogonalEdgeStyle;rounded=0;orthogonalLoop=1;jettySize=auto;html=1;entryX=1;entryY=0.5;entryDx=0;entryDy=0;" edge="1" parent="1" source="5ZXFGwmUAfrGcH8a05qJ-9" target="5ZXFGwmUAfrGcH8a05qJ-14">
          <mxGeometry relative="1" as="geometry">
            <Array as="points">
              <mxPoint x="290" y="345" />
            </Array>
          </mxGeometry>
        </mxCell>
        <mxCell id="5ZXFGwmUAfrGcH8a05qJ-9" value="Enable IR flash" style="rounded=1;whiteSpace=wrap;html=1;absoluteArcSize=1;arcSize=14;strokeWidth=2;fillColor=#e1d5e7;strokeColor=#9673a6;" vertex="1" parent="1">
          <mxGeometry x="240" y="220" width="100" height="40" as="geometry" />
        </mxCell>
        <mxCell id="5ZXFGwmUAfrGcH8a05qJ-14" value="Start recording" style="rounded=1;whiteSpace=wrap;html=1;absoluteArcSize=1;arcSize=14;strokeWidth=2;fillColor=#f8cecc;strokeColor=#b85450;" vertex="1" parent="1">
          <mxGeometry x="90" y="325" width="100" height="40" as="geometry" />
        </mxCell>
        <mxCell id="5ZXFGwmUAfrGcH8a05qJ-34" style="edgeStyle=orthogonalEdgeStyle;rounded=0;orthogonalLoop=1;jettySize=auto;html=1;entryX=0.5;entryY=0;entryDx=0;entryDy=0;" edge="1" parent="1" source="5ZXFGwmUAfrGcH8a05qJ-20" target="5ZXFGwmUAfrGcH8a05qJ-30">
          <mxGeometry relative="1" as="geometry" />
        </mxCell>
        <mxCell id="5ZXFGwmUAfrGcH8a05qJ-20" value="Stop recording" style="rounded=1;whiteSpace=wrap;html=1;absoluteArcSize=1;arcSize=14;strokeWidth=2;fillColor=#f8cecc;strokeColor=#b85450;" vertex="1" parent="1">
          <mxGeometry x="90" y="470" width="100" height="40" as="geometry" />
        </mxCell>
        <mxCell id="5ZXFGwmUAfrGcH8a05qJ-33" style="edgeStyle=orthogonalEdgeStyle;rounded=0;orthogonalLoop=1;jettySize=auto;html=1;entryX=0.5;entryY=0;entryDx=0;entryDy=0;" edge="1" parent="1" source="5ZXFGwmUAfrGcH8a05qJ-21" target="5ZXFGwmUAfrGcH8a05qJ-20">
          <mxGeometry relative="1" as="geometry" />
        </mxCell>
        <mxCell id="5ZXFGwmUAfrGcH8a05qJ-21" value="Wait for configurable recording time" style="strokeWidth=2;html=1;shape=mxgraph.flowchart.delay;whiteSpace=wrap;fillColor=#fff2cc;strokeColor=#d6b656;" vertex="1" parent="1">
          <mxGeometry x="90" y="390" width="100" height="60" as="geometry" />
        </mxCell>
        <mxCell id="5ZXFGwmUAfrGcH8a05qJ-22" value="Read LDR" style="shape=parallelogram;html=1;strokeWidth=2;perimeter=parallelogramPerimeter;whiteSpace=wrap;rounded=1;arcSize=12;size=0.23;fillColor=#e1d5e7;strokeColor=#9673a6;" vertex="1" parent="1">
          <mxGeometry x="90" y="110" width="100" height="60" as="geometry" />
        </mxCell>
        <mxCell id="5ZXFGwmUAfrGcH8a05qJ-24" style="edgeStyle=orthogonalEdgeStyle;rounded=0;orthogonalLoop=1;jettySize=auto;html=1;entryX=0.5;entryY=0;entryDx=0;entryDy=0;entryPerimeter=0;" edge="1" parent="1" source="5ZXFGwmUAfrGcH8a05qJ-22" target="5ZXFGwmUAfrGcH8a05qJ-8">
          <mxGeometry relative="1" as="geometry" />
        </mxCell>
        <mxCell id="5ZXFGwmUAfrGcH8a05qJ-36" style="edgeStyle=orthogonalEdgeStyle;rounded=0;orthogonalLoop=1;jettySize=auto;html=1;entryX=0;entryY=0.5;entryDx=0;entryDy=0;" edge="1" parent="1" source="5ZXFGwmUAfrGcH8a05qJ-29" target="5ZXFGwmUAfrGcH8a05qJ-35">
          <mxGeometry relative="1" as="geometry" />
        </mxCell>
        <mxCell id="5ZXFGwmUAfrGcH8a05qJ-37" value="Yes" style="edgeLabel;html=1;align=center;verticalAlign=middle;resizable=0;points=[];" vertex="1" connectable="0" parent="5ZXFGwmUAfrGcH8a05qJ-36">
          <mxGeometry x="-0.12" y="-3" relative="1" as="geometry">
            <mxPoint x="-2" y="-13" as="offset" />
          </mxGeometry>
        </mxCell>
        <mxCell id="5ZXFGwmUAfrGcH8a05qJ-29" value="Flash on?" style="strokeWidth=2;html=1;shape=mxgraph.flowchart.decision;whiteSpace=wrap;fontFamily=Times New Roman;fillColor=#dae8fc;strokeColor=#6c8ebf;" vertex="1" parent="1">
          <mxGeometry x="90" y="660" width="100" height="100" as="geometry" />
        </mxCell>
        <mxCell id="5ZXFGwmUAfrGcH8a05qJ-43" style="edgeStyle=orthogonalEdgeStyle;rounded=0;orthogonalLoop=1;jettySize=auto;html=1;entryX=0.5;entryY=0;entryDx=0;entryDy=0;" edge="1" parent="1" source="5ZXFGwmUAfrGcH8a05qJ-30" target="5ZXFGwmUAfrGcH8a05qJ-41">
          <mxGeometry relative="1" as="geometry" />
        </mxCell>
        <mxCell id="5ZXFGwmUAfrGcH8a05qJ-30" value="Save to SD card" style="rounded=1;whiteSpace=wrap;html=1;absoluteArcSize=1;arcSize=14;strokeWidth=2;fillColor=#d5e8d4;strokeColor=#82b366;" vertex="1" parent="1">
          <mxGeometry x="90" y="530" width="100" height="40" as="geometry" />
        </mxCell>
        <mxCell id="5ZXFGwmUAfrGcH8a05qJ-31" style="edgeStyle=orthogonalEdgeStyle;rounded=0;orthogonalLoop=1;jettySize=auto;html=1;entryX=0.5;entryY=0;entryDx=0;entryDy=0;entryPerimeter=0;" edge="1" parent="1" source="5ZXFGwmUAfrGcH8a05qJ-14" target="5ZXFGwmUAfrGcH8a05qJ-21">
          <mxGeometry relative="1" as="geometry" />
        </mxCell>
        <mxCell id="5ZXFGwmUAfrGcH8a05qJ-35" value="Disable IR flash" style="rounded=1;whiteSpace=wrap;html=1;absoluteArcSize=1;arcSize=14;strokeWidth=2;fillColor=#e1d5e7;strokeColor=#9673a6;" vertex="1" parent="1">
          <mxGeometry x="240" y="690" width="100" height="40" as="geometry" />
        </mxCell>
        <mxCell id="5ZXFGwmUAfrGcH8a05qJ-41" value="Save metadata" style="rounded=1;whiteSpace=wrap;html=1;absoluteArcSize=1;arcSize=14;strokeWidth=2;fillColor=#d5e8d4;strokeColor=#82b366;" vertex="1" parent="1">
          <mxGeometry x="90" y="590" width="100" height="40" as="geometry" />
        </mxCell>
        <mxCell id="5ZXFGwmUAfrGcH8a05qJ-44" style="edgeStyle=orthogonalEdgeStyle;rounded=0;orthogonalLoop=1;jettySize=auto;html=1;entryX=0.5;entryY=0;entryDx=0;entryDy=0;entryPerimeter=0;" edge="1" parent="1" source="5ZXFGwmUAfrGcH8a05qJ-41" target="5ZXFGwmUAfrGcH8a05qJ-29">
          <mxGeometry relative="1" as="geometry" />
        </mxCell>
        <mxCell id="5ZXFGwmUAfrGcH8a05qJ-48" value="" style="edgeStyle=orthogonalEdgeStyle;rounded=0;orthogonalLoop=1;jettySize=auto;html=1;" edge="1" parent="1" source="5ZXFGwmUAfrGcH8a05qJ-46" target="5ZXFGwmUAfrGcH8a05qJ-22">
          <mxGeometry relative="1" as="geometry" />
        </mxCell>
        <mxCell id="5ZXFGwmUAfrGcH8a05qJ-46" value="PIR sensor interrupt" style="strokeWidth=2;html=1;shape=mxgraph.flowchart.terminator;whiteSpace=wrap;fillColor=#ffe6cc;strokeColor=#d79b00;" vertex="1" parent="1">
          <mxGeometry x="90" y="30" width="100" height="60" as="geometry" />
        </mxCell>
        <mxCell id="5ZXFGwmUAfrGcH8a05qJ-47" value="End" style="strokeWidth=2;html=1;shape=mxgraph.flowchart.terminator;whiteSpace=wrap;fillColor=#ffe6cc;strokeColor=#d79b00;" vertex="1" parent="1">
          <mxGeometry x="90" y="780" width="100" height="60" as="geometry" />
        </mxCell>
        <mxCell id="5ZXFGwmUAfrGcH8a05qJ-50" style="edgeStyle=orthogonalEdgeStyle;rounded=0;orthogonalLoop=1;jettySize=auto;html=1;entryX=0.5;entryY=0;entryDx=0;entryDy=0;entryPerimeter=0;" edge="1" parent="1" source="5ZXFGwmUAfrGcH8a05qJ-29" target="5ZXFGwmUAfrGcH8a05qJ-47">
          <mxGeometry relative="1" as="geometry" />
        </mxCell>
        <mxCell id="5ZXFGwmUAfrGcH8a05qJ-51" style="edgeStyle=orthogonalEdgeStyle;rounded=0;orthogonalLoop=1;jettySize=auto;html=1;entryX=1;entryY=0.5;entryDx=0;entryDy=0;entryPerimeter=0;" edge="1" parent="1" source="5ZXFGwmUAfrGcH8a05qJ-35" target="5ZXFGwmUAfrGcH8a05qJ-47">
          <mxGeometry relative="1" as="geometry">
            <Array as="points">
              <mxPoint x="290" y="810" />
            </Array>
          </mxGeometry>
        </mxCell>
      </root>
    </mxGraphModel>
  </diagram>
</mxfile>
